<svg width="181" height="98" viewBox="0 0 181 98" fill="none" xmlns="http://www.w3.org/2000/svg">
<g filter="url(#filter0_di_1146_5610)">
<path d="M72.4867 12H24.6828C19.6113 12 15.5 16.1007 15.5 21.1592V68.8408C15.5 73.8993 19.6113 78 24.6828 78H72.4867C77.5582 78 81.6695 73.8993 81.6695 68.8408V21.1592C81.6695 16.1007 77.5582 12 72.4867 12Z" fill="#1D2022"/>
</g>
<path d="M61.2079 55.376L63.6107 62.6499C63.8709 63.4132 63.2664 63.9933 62.616 64.5352C55.5605 70.359 44.5642 70.2674 34.9835 64.5352C34.2642 64.1078 33.7132 63.459 33.9734 62.6576L36.2691 55.5515L61.2079 55.376Z" fill="#FBFDFC" stroke="#1D2022" stroke-width="3" stroke-miterlimit="10"/>
<path d="M41.4191 67.8256L38.3965 65.635C38.3965 65.635 40.7457 66.3982 42.2762 63.2841C42.6818 62.4292 42.896 62.3911 42.7736 63.4062C42.5132 64.931 42.058 66.4162 41.4191 67.8256V67.8256Z" fill="#1D2022"/>
<path d="M50.2652 69.0544L46.5538 68.6499C46.5538 68.6499 48.9643 68.1385 48.7577 64.6885C48.6812 63.7421 48.8495 63.6047 49.2474 64.5511C49.7781 66.0027 50.1202 67.5161 50.2652 69.0544V69.0544Z" fill="#1D2022"/>
<path d="M58.7668 67.2755L55.0784 67.8785C55.0784 67.8785 57.6495 66.5962 56.2951 63.3599C55.9278 62.4669 56.1114 62.3371 56.5629 63.2072C57.573 65.1765 58.7668 67.2755 58.7668 67.2755Z" fill="#1D2022"/>
<path d="M68.6307 24.2275V38.9358L64.1312 37.1497L47.7935 30.7001L35.2743 25.7312C34.9768 25.6164 34.7291 25.401 34.5744 25.1226C34.4198 24.8443 34.368 24.5206 34.4281 24.2081C34.4882 23.8956 34.6564 23.614 34.9034 23.4125C35.1503 23.211 35.4603 23.1024 35.7794 23.1055H67.4752C67.7765 23.1054 68.0658 23.2227 68.2816 23.4322C68.4975 23.6418 68.6228 23.9272 68.6307 24.2275Z" fill="#1888A9" stroke="#1D2022" stroke-width="3" stroke-miterlimit="10"/>
<path d="M62.065 43.4462C65.8306 43.4462 68.8832 40.4014 68.8832 36.6455C68.8832 32.8895 65.8306 29.8447 62.065 29.8447C58.2994 29.8447 55.2468 32.8895 55.2468 36.6455C55.2468 40.4014 58.2994 43.4462 62.065 43.4462Z" fill="#FFE2A8" stroke="url(#paint0_linear_1146_5610)" stroke-width="2" stroke-miterlimit="10"/>
<path d="M64.8963 35.8211C64.9448 36.0393 64.9315 36.2665 64.8581 36.4775C64.8045 36.6376 64.7198 36.7855 64.6088 36.9128C64.4979 37.0401 64.3628 37.1443 64.2114 37.2195C64.06 37.2946 63.8952 37.3392 63.7265 37.3508C63.5577 37.3623 63.3884 37.3405 63.2281 37.2866L60.4962 36.3707L58.476 36.6302L57.6649 39.0345C57.621 39.1427 57.5997 39.2587 57.6024 39.3753C57.6051 39.492 57.6318 39.6069 57.6807 39.7129C57.7296 39.8189 57.7998 39.9138 57.8869 39.9918C57.974 40.0697 58.0761 40.129 58.1871 40.1661C58.298 40.2032 58.4154 40.2172 58.532 40.2073C58.6486 40.1974 58.7619 40.1637 58.8649 40.1085C58.968 40.0533 59.0586 39.9776 59.1313 39.886C59.2039 39.7945 59.2569 39.6892 59.2872 39.5764L59.8381 37.9583L62.6848 38.9124C63.1735 39.0792 63.6973 39.1167 64.2049 39.0211C64.7124 38.9255 65.1865 38.7002 65.5806 38.3671C65.9746 38.034 66.2753 37.6046 66.4532 37.1209C66.631 36.6371 66.6799 36.1157 66.5951 35.6074L64.8963 35.8211Z" fill="url(#paint1_linear_1146_5610)"/>
<path d="M60.7565 35.2188L61.2004 33.8983L63.9399 34.8219L66.2356 34.5395C65.876 33.9246 65.305 33.4609 64.6286 33.2343L60.9784 32.0054C60.7623 31.9351 60.527 31.9525 60.3236 32.0539C60.1203 32.1554 59.9651 32.3326 59.8918 32.5473L58.9047 35.4554L60.7565 35.2188Z" fill="url(#paint2_linear_1146_5610)"/>
<path d="M44.878 38.7597C48.6436 38.7597 51.6962 35.7149 51.6962 31.9589C51.6962 28.203 48.6436 25.1582 44.878 25.1582C41.1124 25.1582 38.0598 28.203 38.0598 31.9589C38.0598 35.7149 41.1124 38.7597 44.878 38.7597Z" fill="#FFE2A8" stroke="url(#paint3_linear_1146_5610)" stroke-width="2" stroke-miterlimit="10"/>
<path d="M47.7629 32.5697C47.7024 32.7843 47.5863 32.9791 47.4262 33.1345C47.177 33.3672 46.8457 33.4921 46.5046 33.4821C46.1634 33.4721 45.84 33.3279 45.605 33.0811L43.6307 30.9898L41.7252 30.2646L39.8734 32.0049C39.7241 32.1634 39.641 32.3726 39.641 32.59C39.6409 32.8075 39.724 33.0167 39.8731 33.1753C40.0223 33.3338 40.2265 33.4297 40.444 33.4434C40.6616 33.4571 40.8762 33.3876 41.0442 33.249L42.2992 32.0736L44.3576 34.2566C44.6275 34.543 44.9514 34.7735 45.3108 34.9348C45.6702 35.096 46.058 35.1849 46.4519 35.1962C46.8458 35.2076 47.2381 35.1412 47.6062 35.0009C47.9743 34.8606 48.3111 34.6491 48.597 34.3787C48.947 34.0481 49.2099 33.6365 49.3623 33.1803L47.7629 32.5697Z" fill="#FBFDFC"/>
<path d="M44.4036 30.089L45.4137 29.1425L47.3956 31.2339L49.5306 32.0506C49.5043 31.3454 49.2339 30.6712 48.7654 30.1424L46.1177 27.3412C45.9548 27.1832 45.7365 27.0947 45.5093 27.0947C45.2821 27.0947 45.0638 27.1832 44.901 27.3412L42.6129 29.4097L44.4036 30.089Z" fill="url(#paint4_linear_1146_5610)"/>
<path d="M55.3769 35.4091C59.1425 35.4091 62.1951 32.3643 62.1951 28.6084C62.1951 24.8524 59.1425 21.8076 55.3769 21.8076C51.6113 21.8076 48.5587 24.8524 48.5587 28.6084C48.5587 32.3643 51.6113 35.4091 55.3769 35.4091Z" fill="#FFE2A8" stroke="url(#paint5_linear_1146_5610)" stroke-width="2" stroke-miterlimit="10"/>
<path d="M57.3665 26.4327C57.5184 26.5955 57.6241 26.7957 57.6726 27.0127C57.7439 27.3424 57.6828 27.6868 57.5026 27.9721C57.3224 28.2575 57.0373 28.461 56.7084 28.5393L53.9 29.1804L52.3083 30.4475L52.8746 32.9205C52.8944 33.035 52.9373 33.1443 53.0009 33.2417C53.0644 33.3392 53.1472 33.4226 53.2442 33.487C53.3412 33.5515 53.4504 33.5955 53.565 33.6164C53.6796 33.6373 53.7973 33.6347 53.9109 33.6087C54.0244 33.5827 54.1315 33.5339 54.2255 33.4653C54.3196 33.3966 54.3986 33.3096 54.4577 33.2094C54.5169 33.1093 54.5549 32.9982 54.5695 32.8829C54.5842 32.7676 54.5751 32.6505 54.5428 32.5388L54.1602 30.8749L57.0911 30.2032C57.4753 30.1167 57.8387 29.9554 58.1603 29.7285C58.4819 29.5016 58.7554 29.2136 58.9652 28.881C59.1749 28.5484 59.3167 28.1778 59.3825 27.7904C59.4483 27.403 59.4367 27.0064 59.3485 26.6235C59.2373 26.1519 59.0083 25.716 58.6827 25.3564L57.3665 26.4327Z" fill="url(#paint6_linear_1146_5610)"/>
<path d="M53.5174 28.0738L53.2113 26.7152L56.0274 26.0741L57.8103 24.6544C57.1773 24.3263 56.4492 24.2291 55.7519 24.3796L51.987 25.2421C51.7659 25.293 51.5741 25.4293 51.4536 25.621C51.3331 25.8127 51.2938 26.0443 51.3442 26.2649L52.0329 29.2569L53.5174 28.0738Z" fill="url(#paint7_linear_1146_5610)"/>
<path d="M68.7761 38.9356V48.1636C68.778 49.5742 68.3775 50.9562 67.6214 52.1482C66.8654 53.3403 65.7848 54.2931 64.5061 54.8956L51.9869 60.8033C50.9881 61.2743 49.897 61.5185 48.7921 61.5185C47.6873 61.5185 46.5962 61.2743 45.5973 60.8033L33.0781 54.8956C31.7994 54.2931 30.7189 53.3403 29.9628 52.1482C29.2067 50.9562 28.8062 49.5742 28.8081 48.1636V24.777C28.8085 24.5879 28.8552 24.4018 28.9442 24.2348C29.0332 24.0678 29.1617 23.9251 29.3186 23.819C29.4755 23.7129 29.656 23.6467 29.8445 23.6261C30.0329 23.6054 30.2235 23.6311 30.3998 23.7008L47.9695 30.6999L64.3072 37.1877L68.7761 38.9356Z" fill="#FBFDFC"/>
<path d="M64.9882 42.0037C64.9911 42.9755 64.7791 43.936 64.3673 44.8168C63.9555 45.6975 63.354 46.4769 62.6058 47.0993C61.8575 47.7217 60.9809 48.172 60.0383 48.4179C59.0956 48.6638 58.1103 48.6993 57.1523 48.522C54.7611 48.0488 52.6084 46.7632 51.0609 44.8843C49.5135 43.0054 48.6671 40.6495 48.6659 38.2179V36.1876C48.6698 36.0513 48.7065 35.918 48.773 35.799C48.8396 35.6799 48.9339 35.5786 49.0481 35.5037C49.1623 35.4288 49.2929 35.3824 49.4288 35.3686C49.5648 35.3548 49.7021 35.3739 49.829 35.4243L64.4679 41.2404C64.6193 41.3039 64.7491 41.4097 64.8414 41.5452C64.9338 41.6806 64.9848 41.8399 64.9882 42.0037Z" fill="#1D2022"/>
<path d="M28.8081 37.042H39.8198C40.5433 37.042 41.2598 37.1841 41.9282 37.4603C42.5967 37.7365 43.2041 38.1413 43.7157 38.6516C44.2273 39.1619 44.6331 39.7677 44.91 40.4345C45.1869 41.1012 45.3294 41.8159 45.3294 42.5375V42.5375C45.3294 43.2592 45.1869 43.9738 44.91 44.6406C44.6331 45.3073 44.2273 45.9132 43.7157 46.4235C43.2041 46.9338 42.5967 47.3386 41.9282 47.6148C41.2598 47.8909 40.5433 48.0331 39.8198 48.0331H28.8081V37.042Z" fill="#1888A9" stroke="#231F20" stroke-miterlimit="10"/>
<path d="M30.8207 22.64C30.3015 22.4297 29.7231 22.416 29.1945 22.6016C28.666 22.7872 28.2237 23.1592 27.9511 23.6475C27.748 24.0054 27.6474 24.412 27.6603 24.823V48.1638C27.6634 49.7907 28.1277 51.3835 28.9997 52.7584C29.8718 54.1333 31.1158 55.2341 32.5884 55.9339L41.0059 59.8952C41.0054 59.1374 40.7895 58.3952 40.3831 57.7548C39.9768 57.1144 39.3967 56.6021 38.7102 56.2773L33.5908 53.8654C32.5116 53.3508 31.5999 52.5426 30.961 51.5338C30.322 50.5251 29.9816 49.357 29.9789 48.1638V24.7619L67.6359 39.7144V48.1638C67.6333 49.357 67.2929 50.5251 66.6539 51.5338C66.0149 52.5426 65.1033 53.3508 64.024 53.8654L59.226 56.1552C58.539 56.4772 57.9582 56.9878 57.5516 57.6272C57.145 58.2666 56.9295 59.0083 56.9303 59.7655L65.0035 55.9491C66.4761 55.2494 67.7201 54.1486 68.5921 52.7737C69.4642 51.3988 69.9285 49.8059 69.9316 48.179V38.1802L30.8207 22.64Z" fill="#1D2022"/>
<path d="M40.4091 48.0331C43.452 48.0331 45.9187 45.5726 45.9187 42.5375C45.9187 39.5024 43.452 37.042 40.4091 37.042C37.3662 37.042 34.8994 39.5024 34.8994 42.5375C34.8994 45.5726 37.3662 48.0331 40.4091 48.0331Z" fill="#1D2022"/>
<path d="M47.0818 53.9256C47.2412 53.6515 47.47 53.424 47.7454 53.2658C48.0207 53.1077 48.3328 53.0244 48.6505 53.0244C48.9682 53.0244 49.2804 53.1077 49.5557 53.2658C49.831 53.424 50.0598 53.6515 50.2192 53.9256L51.3518 55.8796L52.4767 57.8259C52.6352 58.0981 52.7198 58.4068 52.722 58.7216C52.7243 59.0363 52.6442 59.3462 52.4897 59.6206C52.3351 59.8951 52.1114 60.1245 51.8407 60.2863C51.57 60.4481 51.2617 60.5366 50.9462 60.5432H46.4314C46.1126 60.5432 45.7995 60.4595 45.5235 60.3004C45.2475 60.1413 45.0184 59.9124 44.8594 59.6369C44.7003 59.3614 44.6169 59.0489 44.6174 58.731C44.618 58.4131 44.7026 58.1009 44.8626 57.8259L45.9875 55.8796L47.0818 53.9256Z" fill="#1D2022"/>
<path d="M107.512 64.6393L109.532 56.625H111.331L108.27 67.1123H106.808L104.252 59.1667L101.765 67.1123H100.311L97.2505 56.625H99.0411L101.107 64.4714L103.556 56.625H105.002L107.512 64.6393Z" fill="#FBFDFC"/>
<path d="M125.954 67.1125C125.812 66.7593 125.727 66.3857 125.702 66.0058C125.321 66.418 124.859 66.7464 124.343 66.9698C123.828 67.1933 123.272 67.3069 122.71 67.3033C121.777 67.3424 120.865 67.0289 120.154 66.4256C119.832 66.153 119.576 65.812 119.404 65.4277C119.232 65.0433 119.148 64.6253 119.159 64.2044C119.139 63.7107 119.242 63.2197 119.46 62.7758C119.678 62.332 120.003 61.9494 120.406 61.6628C121.453 60.9995 122.682 60.6817 123.919 60.7545H125.671V59.9301C125.688 59.6504 125.646 59.3703 125.549 59.1075C125.451 58.8448 125.3 58.605 125.105 58.4036C124.88 58.2047 124.617 58.0529 124.331 57.9572C124.046 57.8614 123.745 57.8238 123.444 57.8464C122.868 57.8265 122.301 57.9954 121.83 58.3273C121.634 58.4564 121.473 58.6307 121.36 58.8354C121.247 59.0401 121.185 59.269 121.179 59.5027H119.373C119.381 58.9454 119.578 58.4071 119.932 57.9762C120.336 57.4686 120.863 57.072 121.463 56.8236C122.125 56.5307 122.843 56.3849 123.567 56.3962C124.596 56.3341 125.612 56.6581 126.414 57.3045C126.76 57.619 127.034 58.0038 127.219 58.433C127.404 58.8621 127.495 59.3258 127.485 59.7927V64.6929C127.454 65.473 127.579 66.2514 127.852 66.9828V67.143L125.954 67.1125ZM122.97 65.7463C123.532 65.7458 124.085 65.5956 124.569 65.3112C125.044 65.0521 125.428 64.6555 125.671 64.1739V62.0215H124.263C122.059 62.0215 120.957 62.6652 120.957 63.9526C120.945 64.2011 120.99 64.4491 121.088 64.6779C121.186 64.9066 121.335 65.1101 121.524 65.273C121.933 65.5989 122.447 65.7669 122.97 65.7463Z" fill="#FBFDFC"/>
<path d="M138.542 67.1123H136.744V52.2285H138.542V67.1123Z" fill="#FBFDFC"/>
<path d="M149.676 67.1123H147.878V52.2285H149.676V67.1123Z" fill="#FBFDFC"/>
<path d="M163.221 67.3034C162.576 67.3272 161.933 67.2151 161.335 66.9744C160.736 66.7338 160.195 66.3699 159.747 65.9066C158.821 64.8835 158.339 63.5357 158.408 62.1589V61.8307C158.391 60.8688 158.595 59.9159 159.005 59.0448C159.371 58.264 159.949 57.6006 160.673 57.129C161.354 56.679 162.152 56.4376 162.968 56.4344C163.568 56.4023 164.166 56.5065 164.719 56.7393C165.272 56.972 165.765 57.3271 166.159 57.7778C166.983 58.8883 167.384 60.2542 167.292 61.6323V62.3956H160.175C160.153 63.3132 160.475 64.2062 161.078 64.8991C161.354 65.2101 161.695 65.4569 162.078 65.6217C162.46 65.7866 162.874 65.8656 163.29 65.8532C163.853 65.8732 164.411 65.7413 164.905 65.4715C165.352 65.2044 165.744 64.8547 166.06 64.4411L167.154 65.296C166.734 65.9468 166.149 66.4753 165.459 66.8278C164.768 67.1803 163.996 67.3444 163.221 67.3034V67.3034ZM162.999 57.9075C162.657 57.8976 162.317 57.9606 162.002 58.0922C161.687 58.2239 161.403 58.4211 161.17 58.6708C160.637 59.2922 160.317 60.0682 160.26 60.8843H165.524V60.7545C165.514 59.9818 165.245 59.2347 164.759 58.6326C164.535 58.3932 164.262 58.2046 163.958 58.0795C163.654 57.9544 163.327 57.8957 162.999 57.9075V57.9075Z" fill="#FBFDFC"/>
<path d="M178.174 54.0908V56.6249H180.133V58.014H178.174V64.5247C178.148 64.8607 178.24 65.1952 178.434 65.4712C178.551 65.5853 178.692 65.6724 178.847 65.7264C179.001 65.7805 179.166 65.8002 179.329 65.7841C179.615 65.774 179.9 65.7356 180.179 65.6696V67.1122C179.73 67.2381 179.267 67.3023 178.801 67.303C178.464 67.3271 178.125 67.2743 177.811 67.1487C177.496 67.0231 177.215 66.8279 176.988 66.5779C176.544 65.9855 176.327 65.2548 176.375 64.5171V58.014H174.462V56.6249H176.375V54.0908H178.174Z" fill="#FBFDFC"/>
<path d="M100.051 34.9935V43.3895H96.9138V22.7125H100.464C101.788 22.6694 103.112 22.7925 104.405 23.0788C105.304 23.3151 106.123 23.7868 106.778 24.4451C107.357 25.0143 107.812 25.6965 108.114 26.449C108.417 27.2015 108.561 28.0081 108.538 28.8186C108.575 29.664 108.423 30.5071 108.092 31.2862C107.761 32.0654 107.26 32.7609 106.625 33.3219C105.174 34.4942 103.339 35.0872 101.475 34.9859L100.051 34.9935ZM100.051 32.0931H101.222C104.099 32.0931 105.538 30.9939 105.538 28.7805C105.538 26.567 104.053 25.5747 101.084 25.5747H100.051V32.0931Z" fill="#FBFDFC"/>
<path d="M114.927 22.7129V43.4281H111.79V22.7129H114.927Z" fill="#FBFDFC"/>
<path d="M126.957 34.5818L133.385 43.4052H129.559L123.62 34.9252H123.077V43.4052H119.94V22.7129H123.613C126.36 22.7129 128.342 23.2319 129.559 24.2394C130.219 24.7938 130.744 25.4909 131.094 26.2777C131.444 27.0646 131.61 27.9206 131.579 28.7809C131.613 30.1499 131.163 31.4872 130.308 32.5591C129.471 33.6127 128.281 34.3306 126.957 34.5818ZM123.054 32.208H124.049C127.018 32.208 128.502 31.0707 128.502 28.8114C128.502 26.6895 127.059 25.6286 124.171 25.6286H123.077L123.054 32.208Z" fill="#FBFDFC"/>
<path d="M148.705 38.5964H139.813L137.517 43.6264H134.135L144.205 22.8196C144.224 22.7809 144.253 22.7482 144.29 22.7254C144.326 22.7025 144.368 22.6904 144.412 22.6904C144.455 22.6904 144.497 22.7025 144.534 22.7254C144.57 22.7482 144.599 22.7809 144.618 22.8196L154.329 43.6187H150.901L148.705 38.5964ZM147.427 35.6883L144.366 28.6434L141.121 35.6883H147.427Z" fill="#FBFDFC"/>
<path d="M161.484 25.6286V43.4052H158.347V25.6286H153.572V22.7129H166.244V25.6515L161.484 25.6286Z" fill="#FBFDFC"/>
<path d="M180.469 25.6286H172.174V30.6051H180.263V33.5437H172.174V40.4666H180.469V43.4052H168.991V22.7129H180.469V25.6286Z" fill="#FBFDFC"/>
<path d="M96.9138 49.9385H131.487" stroke="#C4C4C4" stroke-width="0.8" stroke-miterlimit="10"/>
<path d="M154.941 49.9385H180.5" stroke="#C4C4C4" stroke-width="0.8" stroke-miterlimit="10"/>
<defs>
<filter id="filter0_di_1146_5610" x="0.5" y="0" width="98.1694" height="98" filterUnits="userSpaceOnUse" color-interpolation-filters="sRGB">
<feFlood flood-opacity="0" result="BackgroundImageFix"/>
<feColorMatrix in="SourceAlpha" type="matrix" values="0 0 0 0 0 0 0 0 0 0 0 0 0 0 0 0 0 0 127 0" result="hardAlpha"/>
<feOffset dx="1" dy="4"/>
<feGaussianBlur stdDeviation="8"/>
<feColorMatrix type="matrix" values="0 0 0 0 0.0509804 0 0 0 0 0.054902 0 0 0 0 0.0627451 0 0 0 0.85 0"/>
<feBlend mode="normal" in2="BackgroundImageFix" result="effect1_dropShadow_1146_5610"/>
<feBlend mode="normal" in="SourceGraphic" in2="effect1_dropShadow_1146_5610" result="shape"/>
<feColorMatrix in="SourceAlpha" type="matrix" values="0 0 0 0 0 0 0 0 0 0 0 0 0 0 0 0 0 0 127 0" result="hardAlpha"/>
<feOffset dx="2" dy="5"/>
<feGaussianBlur stdDeviation="6"/>
<feComposite in2="hardAlpha" operator="arithmetic" k2="-1" k3="1"/>
<feColorMatrix type="matrix" values="0 0 0 0 0.8 0 0 0 0 0.8 0 0 0 0 0.8 0 0 0 0.15 0"/>
<feBlend mode="normal" in2="shape" result="effect2_innerShadow_1146_5610"/>
</filter>
<linearGradient id="paint0_linear_1146_5610" x1="62.065" y1="29.8447" x2="62.065" y2="43.4462" gradientUnits="userSpaceOnUse">
<stop stop-color="#4EC5E8" stop-opacity="0.31"/>
<stop offset="0.21875" stop-color="#27465F"/>
<stop offset="1" stop-color="#091933"/>
</linearGradient>
<linearGradient id="paint1_linear_1146_5610" x1="62.1189" y1="35.6074" x2="62.1189" y2="40.2103" gradientUnits="userSpaceOnUse">
<stop stop-color="#031D2C"/>
<stop offset="0.208333" stop-color="#031423"/>
<stop offset="0.401042" stop-color="#041327"/>
<stop offset="0.822917" stop-color="#010B21"/>
</linearGradient>
<linearGradient id="paint2_linear_1146_5610" x1="62.5701" y1="31.9629" x2="62.5701" y2="35.4554" gradientUnits="userSpaceOnUse">
<stop stop-color="#031D2C"/>
<stop offset="0.208333" stop-color="#031423"/>
<stop offset="0.401042" stop-color="#041327"/>
<stop offset="0.822917" stop-color="#010B21"/>
</linearGradient>
<linearGradient id="paint3_linear_1146_5610" x1="44.878" y1="25.1582" x2="44.878" y2="38.7597" gradientUnits="userSpaceOnUse">
<stop stop-color="#4EC5E8" stop-opacity="0.31"/>
<stop offset="0.21875" stop-color="#27465F"/>
<stop offset="1" stop-color="#091933"/>
</linearGradient>
<linearGradient id="paint4_linear_1146_5610" x1="46.0718" y1="27.0947" x2="46.0718" y2="32.0506" gradientUnits="userSpaceOnUse">
<stop stop-color="#031D2C"/>
<stop offset="0.208333" stop-color="#031423"/>
<stop offset="0.401042" stop-color="#041327"/>
<stop offset="0.822917" stop-color="#010B21"/>
</linearGradient>
<linearGradient id="paint5_linear_1146_5610" x1="55.3769" y1="21.8076" x2="55.3769" y2="35.4091" gradientUnits="userSpaceOnUse">
<stop stop-color="#4EC5E8" stop-opacity="0.31"/>
<stop offset="0.21875" stop-color="#27465F"/>
<stop offset="1" stop-color="#091933"/>
</linearGradient>
<linearGradient id="paint6_linear_1146_5610" x1="55.8664" y1="25.3564" x2="55.8664" y2="33.6304" gradientUnits="userSpaceOnUse">
<stop stop-color="#031D2C"/>
<stop offset="0.208333" stop-color="#031423"/>
<stop offset="0.401042" stop-color="#041327"/>
<stop offset="0.822917" stop-color="#010B21"/>
</linearGradient>
<linearGradient id="paint7_linear_1146_5610" x1="54.5665" y1="24.3105" x2="54.5665" y2="29.2569" gradientUnits="userSpaceOnUse">
<stop stop-color="#031D2C"/>
<stop offset="0.208333" stop-color="#031423"/>
<stop offset="0.401042" stop-color="#041327"/>
<stop offset="0.822917" stop-color="#010B21"/>
</linearGradient>
</defs>
</svg>
